<?xml version="1.0" encoding="UTF-8" standalone="no"?>
<svg
   xmlns:dc="http://purl.org/dc/elements/1.1/"
   xmlns:cc="http://creativecommons.org/ns#"
   xmlns:rdf="http://www.w3.org/1999/02/22-rdf-syntax-ns#"
   xmlns:svg="http://www.w3.org/2000/svg"
   xmlns="http://www.w3.org/2000/svg"
   version="1.1"
   id="svg9165"
   viewBox="0 0 1860.765 692.04816"
   height="195.31137mm"
   width="525.14923mm">
  <defs
     id="defs9167" />
  <metadata
     id="metadata9170">
    <rdf:RDF>
      <cc:Work
         rdf:about="">
        <dc:format>image/svg+xml</dc:format>
        <dc:type
           rdf:resource="http://purl.org/dc/dcmitype/StillImage" />
        <dc:title></dc:title>
      </cc:Work>
    </rdf:RDF>
  </metadata>
  <g
     transform="translate(27.471009,-1569.0084)"
     id="layer1">
    <g
       id="flowRoot4136-4-1-8-0-6-0-7-8-1-5-4"
       style="font-style:normal;font-weight:normal;font-size:425.04217529px;line-height:125%;font-family:Sans;letter-spacing:0px;word-spacing:0px;fill:#000000;fill-opacity:1;stroke:none;stroke-width:1px;stroke-linecap:butt;stroke-linejoin:miter;stroke-opacity:1"
       transform="translate(541.76994,1572.4293)">
      <path
         id="path10234"
         style="font-style:normal;font-variant:normal;font-weight:normal;font-stretch:normal;font-size:549.24865723px;font-family:'Libre Baskerville';-inkscape-font-specification:'Libre Baskerville'"
         d="m 3.5522461e-4,447.92516 0,-20.87145 Q 21.421053,426.50446 34.053772,423.75822 q 13.181968,-2.74624 19.772952,-9.33723 7.140232,-6.59098 9.337227,-18.67445 2.746243,-12.08347 2.746243,-31.30717 l 0,-255.94988 q 0,-19.223702 -2.196995,-30.757924 Q 62.065453,65.648096 56.023718,59.057112 50.531232,51.916879 39.546259,49.719885 28.561285,46.973642 10.985328,45.875144 l 0,-20.871449 164.225352,0 q 74.14857,0 115.34221,26.363936 41.19365,26.363935 41.19365,74.148569 0,36.25041 -23.06844,59.31885 -22.51919,23.06845 -71.95157,37.89816 l 0,2.197 q 17.0267,1.64774 29.65942,3.84474 12.63272,2.19699 22.5192,5.49248 9.88647,2.74625 18.1252,7.14024 8.78798,4.39399 17.02671,9.88647 48.88313,34.60267 48.88313,86.78129 0,29.11018 -16.47746,54.37562 -15.92821,24.71619 -45.03839,38.99665 -9.33722,4.94324 -19.2237,8.23873 -9.88647,2.74624 -23.06844,4.94324 -13.18197,1.64775 -30.75793,2.74624 -17.02671,0.54925 -40.6444,0.54925 l -197.72951477539,0 z M 199.37762,424.30747 q 99.414,0 99.414,-85.13354 0,-62.0651 -51.08012,-86.78129 -8.78798,-3.84474 -17.02671,-6.59098 -8.23873,-2.74625 -19.2237,-3.84475 -10.98497,-1.64774 -26.36394,-2.19699 -14.82971,-0.54925 -36.79966,-0.54925 l -24.71619,0 0,122.48245 q 0,33.50417 17.57596,48.33388 17.57596,14.28047 58.22036,14.28047 z M 154.33923,211.74824 q 17.02671,0 28.56093,-0.54925 11.53422,-0.54925 19.77295,-1.64775 8.23873,-1.64774 14.28046,-3.84474 6.59099,-2.74624 13.18197,-7.14023 17.57596,-10.98497 24.71619,-26.36393 7.68948,-15.37897 7.68948,-40.09516 0,-43.390641 -21.42069,-62.065095 -20.87145,-19.223703 -65.90984,-19.223703 l -42.29215,0 q -9.33723,0 -9.33723,9.337227 l 0,151.592631 30.75793,0 z" />
      <path
         id="path10236"
         style="font-style:normal;font-variant:normal;font-weight:normal;font-stretch:normal;font-size:549.24865723px;font-family:'Libre Baskerville';-inkscape-font-specification:'Libre Baskerville'"
         d="m 823.8476,129.91019 -22.5192,0 q -1.64774,-23.61769 -7.68948,-39.545905 -6.04173,-15.928211 -17.57596,-24.716189 -10.98497,-9.337227 -28.01168,-13.181968 -17.02671,-3.844741 -40.6444,-3.844741 -20.3222,0 -32.95492,1.098498 -12.08347,0.549248 -18.67445,2.746243 -6.59099,2.196995 -8.78798,5.492487 -1.64775,2.746243 -1.64775,7.689481 l 0,293.848034 q 0,17.57595 2.197,30.20867 2.74624,12.63272 9.88647,20.87145 7.68949,7.68948 21.4207,12.08347 14.28047,3.84474 37.34891,4.39399 l 0,20.87145 -207.61599,0 0,-20.87145 q 23.06844,-0.54925 37.34891,-4.39399 14.28046,-4.39399 21.42069,-12.08347 7.68949,-8.23873 9.88648,-20.87145 2.74624,-12.63272 2.74624,-30.20867 l 0,-293.848034 q 0,-4.943238 -2.19699,-7.689481 -1.64775,-3.295492 -7.68948,-5.492487 -5.49249,-2.196995 -15.92821,-2.746243 -10.43573,-1.098498 -28.01168,-1.098498 -21.4207,0 -40.09516,1.647746 -18.1252,1.647746 -31.85642,9.886476 -13.18197,7.689481 -21.4207,24.166941 -8.23873,16.47746 -8.78797,45.58764 l -20.32221,0 0,-104.906495 414.68274,0 5.49249,104.906495 z" />
      <path
         id="path10238"
         style="font-style:normal;font-variant:normal;font-weight:normal;font-stretch:normal;font-size:549.24865723px;font-family:'Libre Baskerville';-inkscape-font-specification:'Libre Baskerville'"
         d="m 1212.5698,447.92516 -354.81467,0 0,-20.87145 q 19.2237,-0.54925 30.75792,-3.29549 12.08348,-2.74624 18.67446,-9.33723 6.59098,-6.59098 8.78798,-18.67445 2.19699,-12.08347 2.19699,-31.30717 l 0,-255.94988 q 0,-19.223702 -2.19699,-30.757924 -1.64775,-12.08347 -7.68948,-18.674454 -5.49249,-7.140233 -16.47746,-9.337227 -10.98498,-2.746243 -28.56093,-3.844741 l 0,-20.871449 166.97158,0 0,20.871449 q -17.5759,0.549249 -28.5609,3.295492 -10.43575,2.746243 -16.47748,9.886476 -5.49249,7.140233 -7.68948,19.772952 -1.64775,12.632719 -1.64775,33.504166 l 0,236.72617 q 0,23.06845 4.39399,37.89816 4.94324,14.28047 15.92821,22.5192 11.53421,7.68948 30.20871,10.98497 18.6744,2.74624 47.2354,2.74624 31.3071,0 52.7278,-3.29549 21.4207,-3.84474 35.7012,-12.63272 14.8297,-9.33723 23.0684,-25.26544 8.788,-16.47746 14.8297,-42.29214 l 20.8715,0 -8.2387,108.20198 z" />
    </g>
    <g
       id="flowRoot4136-4-1-8-0-6-0-4-1-9-1-0"
       style="font-style:normal;font-weight:normal;font-size:117.97060394px;line-height:125%;font-family:Sans;letter-spacing:0px;word-spacing:0px;fill:#000000;fill-opacity:1;stroke:none;stroke-width:1px;stroke-linecap:butt;stroke-linejoin:miter;stroke-opacity:1"
       transform="translate(531.48834,2114.0425)">
      <path
         id="path10207"
         style="font-style:normal;font-variant:normal;font-weight:normal;font-stretch:normal;font-size:152.44415283px;font-family:'DejaVu Serif';-inkscape-font-specification:'DejaVu Serif'"
         d="m 29.254268,105.25567 22.256251,0 q 13.398412,0 19.576569,-5.805977 6.178156,-5.805979 6.178156,-18.460034 0,-12.57962 -6.178156,-18.311163 -6.103721,-5.805979 -19.576569,-5.805979 l -22.256251,0 0,48.383153 z m 0,-56.273329 18.906648,0 q 12.207442,0 17.790114,-4.689444 5.657107,-4.689444 5.657107,-14.812688 0,-10.197681 -5.657107,-14.812689 Q 60.368358,9.9780757 48.160916,9.9780757 l -18.906648,0 0,39.0042653 z m -29.25319902,64.163509 0,-7.89018 14.14276802,0 0,-95.2775943 -14.14276802,0 0,-7.9646115 54.85905302,0 q 16.82245,0 25.308111,6.9225128 8.560097,6.848077 8.560097,20.544232 0,9.899937 -5.95485,15.780351 -5.880414,5.880414 -17.269064,7.220256 14.142768,1.786454 21.437459,9.081145 7.369126,7.220256 7.369126,19.427698 0,16.524708 -10.420987,24.340451 -10.420987,7.81574 -32.528366,7.81574 l -51.36057902,0 z" />
      <path
         id="path10209"
         style="font-style:normal;font-variant:normal;font-weight:normal;font-stretch:normal;font-size:152.44415283px;font-family:'DejaVu Serif';-inkscape-font-specification:'DejaVu Serif'"
         d="m 186.16456,75.034809 -59.02745,0 0,0.595485 q 0,16.003658 6.02928,24.191577 6.02929,8.113479 17.79012,8.113479 9.00671,0 14.73825,-4.68944 5.80598,-4.76388 8.11348,-14.068333 l 11.01647,0 q -3.27516,13.026233 -12.133,19.576573 -8.78341,6.55033 -23.14948,6.55033 -17.3435,0 -27.91336,-11.38865 -10.49542,-11.463086 -10.49542,-30.369734 0,-18.757776 10.34655,-30.220862 10.34655,-11.463086 27.169,-11.463086 17.93899,0 27.54118,11.090908 9.6022,11.016472 9.97438,32.081753 z m -16.15253,-7.890176 q -0.44662,-13.845026 -5.88042,-20.841974 -5.35936,-7.071384 -15.48261,-7.071384 -9.45332,0 -14.88712,7.071384 -5.4338,7.071384 -6.62477,20.841974 l 42.87492,0 z" />
      <path
         id="path10211"
         style="font-style:normal;font-variant:normal;font-weight:normal;font-stretch:normal;font-size:152.44415283px;font-family:'DejaVu Serif';-inkscape-font-specification:'DejaVu Serif'"
         d="m 200.00958,113.14585 0,-7.89018 12.35631,0 0,-63.270277 -13.10067,0 0,-7.964612 26.79683,0 0,14.068333 q 3.79621,-8.039047 9.8255,-12.133006 6.10372,-4.09396 14.14277,-4.09396 13.10067,0 19.27882,7.517998 6.17816,7.517998 6.17816,23.447221 l 0,42.428303 12.20744,0 0,7.89018 -37.81329,0 0,-7.89018 11.83526,0 0,-38.111037 q 0,-14.514946 -3.57291,-19.874311 -3.57291,-5.4338 -12.57962,-5.4338 -9.52776,0 -14.51495,6.996948 -4.98718,6.922513 -4.98718,20.246489 l 0,36.175711 11.9097,0 0,7.89018 -37.96217,0 z" />
      <path
         id="path10213"
         style="font-style:normal;font-variant:normal;font-weight:normal;font-stretch:normal;font-size:152.44415283px;font-family:'DejaVu Serif';-inkscape-font-specification:'DejaVu Serif'"
         d="m 372.03032,105.25567 13.10067,0 0,7.89018 -26.79683,0 0,-12.35632 q -4.01952,7.44357 -10.27211,11.01648 -6.17816,3.49847 -15.33374,3.49847 -14.58938,0 -23.89384,-11.53752 -9.23001,-11.611958 -9.23001,-30.220864 0,-18.608905 9.23001,-30.146426 9.23002,-11.537522 23.89384,-11.537522 9.15558,0 15.33374,3.57291 6.25259,3.498474 10.27211,10.942037 l 0,-41.1628991 -12.9518,0 0,-7.8901759 26.64796,0 0,107.93165 z m -13.69616,-27.764486 0,-7.81574 q 0,-14.217204 -5.50823,-21.735201 -5.4338,-7.517998 -15.85479,-7.517998 -10.56986,0 -16.00366,8.336789 -5.35936,8.33679 -5.35936,24.787062 0,16.375837 5.35936,24.787062 5.4338,8.411222 16.00366,8.411222 10.42099,0 15.85479,-7.443559 5.50823,-7.517997 5.50823,-21.809637 z" />
      <path
         id="path10215"
         style="font-style:normal;font-variant:normal;font-weight:normal;font-stretch:normal;font-size:152.44415283px;font-family:'DejaVu Serif';-inkscape-font-specification:'DejaVu Serif'"
         d="m 404.48423,9.4570263 q 0,-3.4240386 2.45637,-5.9548497 2.53081,-2.53081113 6.02929,-2.53081113 3.42404,0 5.88041,2.53081113 2.53081,2.5308111 2.53081,5.9548497 0,3.4984747 -2.45637,5.9548497 -2.45638,2.456376 -5.95485,2.456376 -3.49848,0 -6.02929,-2.456376 -2.45637,-2.456375 -2.45637,-5.9548497 z m 17.49237,95.7986437 12.9518,0 0,7.89018 -39.74862,0 0,-7.89018 13.10066,0 0,-63.270277 -13.10066,0 0,-7.964612 26.79682,0 0,71.234889 z" />
      <path
         id="path10217"
         style="font-style:normal;font-variant:normal;font-weight:normal;font-stretch:normal;font-size:152.44415283px;font-family:'DejaVu Serif';-inkscape-font-specification:'DejaVu Serif'"
         d="m 444.7539,113.14585 0,-7.89018 12.35632,0 0,-63.270277 -13.10067,0 0,-7.964612 26.79682,0 0,14.068333 q 3.79622,-8.039047 9.8255,-12.133006 6.10372,-4.09396 14.14277,-4.09396 13.10067,0 19.27883,7.517998 6.17815,7.517998 6.17815,23.447221 l 0,42.428303 12.20745,0 0,7.89018 -37.8133,0 0,-7.89018 11.83526,0 0,-38.111037 q 0,-14.514946 -3.57291,-19.874311 -3.5729,-5.4338 -12.57962,-5.4338 -9.52775,0 -14.51494,6.996948 -4.98719,6.922513 -4.98719,20.246489 l 0,36.175711 11.9097,0 0,7.89018 -37.96217,0 z" />
      <path
         id="path10219"
         style="font-style:normal;font-variant:normal;font-weight:normal;font-stretch:normal;font-size:152.44415283px;font-family:'DejaVu Serif';-inkscape-font-specification:'DejaVu Serif'"
         d="m 616.77464,41.985393 0,69.448437 q 0,17.04576 -9.37889,26.27577 -9.37889,9.30445 -26.72239,9.30445 -7.81574,0 -14.96156,-1.41427 -7.14582,-1.41428 -13.69615,-4.24283 l 0,-16.59915 7.14582,0 q 1.33984,7.74131 6.32703,11.31422 4.98718,3.57291 14.29164,3.57291 12.05857,0 17.64124,-6.84808 5.65711,-6.77364 5.65711,-21.36302 l 0,-10.6443 q -4.01953,7.44357 -10.27212,11.01648 -6.17816,3.49847 -15.33374,3.49847 -14.58938,0 -23.89383,-11.53752 -9.23002,-11.611958 -9.23002,-30.220864 0,-18.608905 9.23002,-30.146426 9.23002,-11.537522 23.89383,-11.537522 9.15558,0 15.33374,3.57291 6.25259,3.498474 10.27212,10.942037 l 0,-12.356314 26.79682,0 0,7.964612 -13.10067,0 z m -13.69615,27.690051 q 0,-14.217204 -5.50824,-21.735201 -5.4338,-7.517998 -15.85479,-7.517998 -10.56986,0 -16.00366,8.336789 -5.35936,8.33679 -5.35936,24.787062 0,16.375837 5.35936,24.787062 5.4338,8.411222 16.00366,8.411222 10.42099,0 15.85479,-7.443559 5.50824,-7.517997 5.50824,-21.809637 l 0,-7.81574 z" />
      <path
         id="path10221"
         style="font-style:normal;font-variant:normal;font-weight:normal;font-stretch:normal;font-size:152.44415283px;font-family:'DejaVu Serif';-inkscape-font-specification:'DejaVu Serif'"
         d="m 699.39815,41.985393 -12.05857,0 0,-7.964612 12.05857,0 0,-24.5637547 13.77059,0 0,24.5637547 25.75472,0 0,7.964612 -25.75472,0 0,50.244044 q 0,10.048813 1.93532,12.877363 1.93533,2.82855 7.14582,2.82855 5.35937,0 7.81574,-3.12629 2.45638,-3.20073 2.60525,-10.272118 l 10.34655,0 q -0.59548,10.793168 -5.88041,15.780348 -5.28493,4.98719 -16.0781,4.98719 -11.83526,0 -16.74801,-5.21049 -4.91275,-5.28493 -4.91275,-17.864553 l 0,-50.244044 z" />
      <path
         id="path10223"
         style="font-style:normal;font-variant:normal;font-weight:normal;font-stretch:normal;font-size:152.44415283px;font-family:'DejaVu Serif';-inkscape-font-specification:'DejaVu Serif'"
         d="m 750.53543,113.14585 0,-7.89018 12.35631,0 0,-100.0414741 -13.10067,0 0,-7.8901759 26.79683,0 0,50.765094 q 3.79621,-8.039047 9.8255,-12.133006 6.10372,-4.09396 14.14277,-4.09396 13.10067,0 19.27882,7.517998 6.17816,7.517998 6.17816,23.447221 l 0,42.428303 12.20744,0 0,7.89018 -37.81329,0 0,-7.89018 11.83526,0 0,-38.111037 q 0,-14.514946 -3.57291,-19.799875 -3.49847,-5.359365 -12.57962,-5.359365 -9.52776,0 -14.51495,6.922513 -4.98718,6.922513 -4.98718,20.172053 l 0,36.175711 11.9097,0 0,7.89018 -37.96217,0 z" />
      <path
         id="path10225"
         style="font-style:normal;font-variant:normal;font-weight:normal;font-stretch:normal;font-size:152.44415283px;font-family:'DejaVu Serif';-inkscape-font-specification:'DejaVu Serif'"
         d="m 925.16138,75.034809 -59.02745,0 0,0.595485 q 0,16.003658 6.02929,24.191577 6.02928,8.113479 17.79011,8.113479 9.00671,0 14.73826,-4.68944 5.80597,-4.76388 8.11348,-14.068333 l 11.01647,0 q -3.27517,13.026233 -12.13301,19.576573 -8.7834,6.55033 -23.14947,6.55033 -17.3435,0 -27.91336,-11.38865 -10.49542,-11.463086 -10.49542,-30.369734 0,-18.757776 10.34655,-30.220862 10.34655,-11.463086 27.169,-11.463086 17.93898,0 27.54118,11.090908 9.60219,11.016472 9.97437,32.081753 z m -16.15253,-7.890176 q -0.44661,-13.845026 -5.88041,-20.841974 -5.35937,-7.071384 -15.48261,-7.071384 -9.45333,0 -14.88713,7.071384 -5.4338,7.071384 -6.62477,20.841974 l 42.87492,0 z" />
      <path
         id="path10227"
         style="font-style:normal;font-variant:normal;font-weight:normal;font-stretch:normal;font-size:152.44415283px;font-family:'DejaVu Serif';-inkscape-font-specification:'DejaVu Serif'"
         d="m 989.69711,113.14585 0,-7.89018 14.14279,0 0,-95.2775943 -14.14279,0 0,-7.9646115 43.39599,0 0,7.9646115 -14.1428,0 0,94.0121943 50.7651,0 0,-18.60891 9.1556,0 0,27.76449 -89.17389,0 z" />
      <path
         id="path10229"
         style="font-style:normal;font-variant:normal;font-weight:normal;font-stretch:normal;font-size:152.44415283px;font-family:'DejaVu Serif';-inkscape-font-specification:'DejaVu Serif'"
         d="m 1143.1833,88.284349 0,-16.748014 -17.6412,0 q -10.1977,0 -15.1849,4.391701 -4.9872,4.391702 -4.9872,13.472848 0,8.262354 5.0617,13.100666 5.0616,4.83832 13.6961,4.83832 8.5601,0 13.7706,-5.28493 5.2849,-5.28493 5.2849,-13.770591 z m 13.6962,-24.563755 0,41.535076 12.2074,0 0,7.89018 -25.9036,0 0,-8.5601 q -4.5405,5.50824 -10.4954,8.11348 -5.9548,2.60525 -13.9194,2.60525 -13.1751,0 -20.9165,-6.99695 -7.7413,-6.99695 -7.7413,-18.906646 0,-12.281878 8.8579,-19.055519 8.8578,-6.773642 25.0104,-6.773642 l 19.2043,0 0,-5.4338 q 0,-9.00671 -5.5082,-13.919461 -5.4338,-4.987187 -15.3337,-4.987187 -8.188,0 -13.0263,3.721781 -4.8383,3.721781 -6.0293,11.016472 l -7.0713,0 0,-16.003659 q 7.1458,-3.05186 13.845,-4.540573 6.7736,-1.563148 13.1751,-1.563148 16.4503,0 25.0104,8.187919 8.6345,8.113483 8.6345,23.670527 z" />
      <path
         id="path10231"
         style="font-style:normal;font-variant:normal;font-weight:normal;font-stretch:normal;font-size:152.44415283px;font-family:'DejaVu Serif';-inkscape-font-specification:'DejaVu Serif'"
         d="m 1246.4999,34.020781 20.2465,61.781566 17.8646,-53.816954 -11.4631,0 0,-7.964612 28.6577,0 0,7.964612 -8.7834,0 -23.5217,71.160457 -11.3886,0 -19.5021,-59.176322 -19.5766,59.176322 -10.9421,0 -23.4472,-71.160457 -8.8578,0 0,-7.964612 35.8035,0 0,7.964612 -12.8029,0 17.7157,53.816954 20.3953,-61.781566 9.6022,0 z" />
    </g>
    <path
       id="path25474-7-0-9-0-6-7"
       d="m 88.972083,1570.8159 c 1.171215,0.9928 3.106515,4.774 4.302954,8.4013 3.012876,9.1327 6.861063,14.7319 22.627823,32.9275 13.43803,15.5087 20.29184,21.7198 28.47419,25.8065 5.38571,2.6895 24.97471,8.7676 55.75431,17.298 42.71468,11.8388 60.81099,18.8338 96.53849,37.3166 35.79337,18.5171 45.82492,25.0371 66.29405,43.0894 33.10942,29.1995 46.45554,44.0257 66.65773,74.0526 16.00358,23.7858 17.79243,26.8121 17.79225,30.0947 3.6e-4,5.6794 -4.9499,12.1099 -9.32127,12.1099 -3.79347,0 -5.82758,-2.1182 -20.82736,-21.6825 -21.69587,-28.2991 -33.65265,-40.4734 -66.2671,-67.4749 -31.54396,-26.1153 -35.88829,-29.0445 -66.20196,-44.6427 -30.90436,-15.9018 -48.21716,-22.7082 -97.05433,-38.1548 -20.34773,-6.4364 -58.57282,-21.1649 -70.1397,-27.0262 -7.45021,-3.7753 -17.16055,-13.5907 -24.714927,-24.9826 -8.562899,-12.9111 -24.360329,-40.5779 -26.171775,-45.8344 -3.125387,-9.0726 0.864166,-13.1056 12.965391,-13.1059 5.324456,-4e-4 7.710529,0.4637 9.291416,1.8068 z m 127.040447,1.3728 c 1.35242,0.5413 7.43316,5.7387 13.51344,11.5506 12.71278,12.151 23.76728,20.3755 36.21158,26.9435 10.59147,5.5895 18.08877,7.9453 36.42089,11.4448 7.70527,1.4706 19.26399,4.4889 25.68489,6.7068 13.63819,4.7101 41.63103,16.5466 48.32877,20.4349 5.89963,3.4256 28.27303,25.2521 40.92901,39.9283 11.45256,13.2823 16.32288,22.3198 18.42114,34.1828 2.07495,11.7305 3.31385,25.3573 2.35868,25.9473 -1.48489,0.9184 -5.90462,-3.4626 -13.33061,-13.2165 -11.49855,-15.0976 -20.50805,-25.5108 -30.44106,-35.1841 -25.84368,-25.1683 -47.73092,-39.092 -73.40573,-46.6963 -23.07043,-6.8334 -61.28154,-22.3787 -71.409,-29.0519 -13.63828,-8.9866 -34.51473,-29.0592 -42.08589,-40.4643 -4.22011,-6.3591 -4.06486,-7.3985 1.69195,-11.3189 3.80581,-2.5918 3.70147,-2.5739 7.1134,-1.2086 z m 150.86707,8.093 c 12.77711,4.3236 26.12014,9.4207 29.65067,11.3267 8.27399,4.4662 25.62119,18.4181 34.97748,28.1323 10.26374,10.6536 14.64971,22.7526 9.83093,27.1134 -3.05924,2.7695 -6.61807,0.5817 -22.08659,-13.581 -26.57328,-24.3296 -29.72026,-26.3888 -61.14889,-40.0083 -19.33966,-8.381 -26.32848,-12.6209 -26.32848,-15.9718 9e-5,-2.3406 4.62979,-5.1814 8.19633,-5.0296 2.02259,0.086 14.13152,3.695 26.90855,8.0183 z m -368.3701789,-5.1178 c 3.5829671,1.1204 7.7056296,4.3619 10.6867476,8.4029 2.1879983,2.9652 2.3312693,4.1308 2.2520573,18.3102 -0.09309,16.9328 1.481712,27.294 6.337791,41.6596 4.019587,11.892 12.522238,28.2115 19.840245,38.082 19.273601,25.994 52.882429,49.0207 80.422038,55.1008 4.25931,0.94 11.92529,2.8142 17.03661,4.164 5.11032,1.3501 17.42305,4.1466 27.36087,6.2147 49.85921,10.3756 53.78243,11.7225 90.85908,31.1921 8.80254,4.622 20.4176,10.3773 25.81247,12.7894 15.06546,6.7367 48.09366,30.1963 67.59274,48.0101 27.42847,25.0584 43.74962,46.7369 54.25345,72.0603 2.32609,5.607 6.70118,15.1315 9.72295,21.1664 12.43767,24.8402 21.23812,53.0457 24.94358,79.9422 2.04518,14.8441 1.57644,17.9647 -3.02966,20.1724 -4.32909,2.0748 -7.48542,0.7328 -14.91394,-6.3425 -12.57232,-11.9757 -16.19095,-19.4175 -27.44734,-56.4457 -5.83484,-19.1927 -7.13472,-22.4484 -10.26755,-25.7135 -4.56472,-4.756 -9.5413,-12.736 -14.89107,-23.8726 -8.68684,-18.0812 -26.03186,-41.2557 -45.21327,-60.4097 -21.18294,-21.1328 -45.29375,-38.5246 -81.01717,-58.3833 -31.18165,-17.3352 -43.91467,-22.554 -68.09598,-27.9129 -33.32818,-7.386 -93.713264,-24.3922 -104.122451,-29.3236 -17.785357,-8.4259 -31.489879,-20.8678 -51.757035,-46.989 -21.5980661,-27.8353 -29.69894,-47.3165 -35.165578,-84.5668 -2.863797,-19.5113 -1.006893,-30.1167 6.180364,-35.299 3.164767,-2.2817 8.8527092,-3.1869 12.6200511,-2.0085 z m 8.0297372,176.8645 c 3.4001349,1.7084 5.3081227,5.8791 9.7963597,21.4147 2.05135,7.0982 6.072751,17.7414 8.937728,23.6514 4.5405,9.3671 6.421267,11.9651 14.661601,20.2521 16.247116,16.3396 27.479638,21.5399 65.723693,30.4324 12.77693,2.9711 28.10971,6.924 34.07249,8.784 5.96242,1.8598 19.20428,5.5509 29.42601,8.2019 33.17184,8.6039 51.34954,15.8146 72.68166,28.8318 21.06318,12.8533 28.07078,19.3396 49.22043,45.561 8.70262,10.7898 17.75794,21.9406 20.12233,24.7801 2.36394,2.8397 5.67207,7.8805 7.35067,11.2028 4.2095,8.3311 11.08091,29.2101 10.43151,31.6947 -0.79221,3.0295 -6.02729,6.9995 -10.28197,7.7979 -7.91868,1.4852 -8.70862,0.642 -24.7651,-26.432 -5.22001,-8.8021 -10.75017,-18.0218 -12.28904,-20.4882 -1.53915,-2.4672 -7.0312,-8.0041 -12.20385,-12.3064 -5.17356,-4.3014 -12.94334,-11.026 -17.26744,-14.9438 -17.44065,-15.8039 -36.65192,-28.95 -57.82851,-39.5724 -17.93562,-8.9967 -27.90075,-12.4597 -44.36418,-15.4184 -28.39126,-5.1029 -53.210073,-12.5336 -78.609234,-23.5353 -15.523681,-6.7244 -24.412684,-11.8604 -37.898807,-21.8966 -20.666392,-15.3805 -26.1611584,-23.6944 -39.5825861,-59.887 -7.3034899,-19.695 -7.2882459,-19.6374 -5.8867439,-22.2569 2.2702953,-4.2411 14.2507511,-8.0304 18.5537959,-5.8686 z m -23.4925343,136.0612 c 5.071122,0.8732 6.85453,2.6237 11.7049824,11.4883 7.0554184,12.892 9.7878301,14.949 29.8554586,22.4712 20.666393,7.7471 41.581764,16.442 51.192206,21.2821 14.174805,7.1378 28.902009,20.1999 44.159109,39.1661 7.24732,9.009 10.16747,14.7558 11.61651,22.862 0.59714,3.3406 1.97904,9.1269 3.07168,12.8585 2.60121,8.8859 2.50947,10.7225 -0.65983,13.2154 -2.53216,1.9915 -9.61144,4.8626 -10.13154,4.1081 -0.13647,-0.1975 -1.56809,-3.5353 -3.18037,-7.4154 -7.86669,-18.9266 -28.139288,-44.7774 -46.805414,-59.6823 -10.62405,-8.4829 -18.29275,-12.715 -43.578401,-24.0487 -27.1302151,-12.1604 -34.5896791,-16.5122 -43.327426,-25.2775 -10.229168,-10.2793 -17.423049,-26.4605 -13.207292,-29.759 2.014784,-1.5744 5.07711,-1.9936 9.28942,-1.2682 z"
       style="fill:#ff0000;fill-opacity:1" />
  </g>
</svg>
