<?xml version="1.0" encoding="UTF-8" standalone="no"?>
<svg
   xmlns:dc="http://purl.org/dc/elements/1.1/"
   xmlns:cc="http://creativecommons.org/ns#"
   xmlns:rdf="http://www.w3.org/1999/02/22-rdf-syntax-ns#"
   xmlns:svg="http://www.w3.org/2000/svg"
   xmlns="http://www.w3.org/2000/svg"
   version="1.1"
   id="svg5099"
   viewBox="0 0 200 80.300178"
   height="22.662495mm"
   width="56.444443mm">
  <defs
     id="defs5101" />
  <metadata
     id="metadata5104">
    <rdf:RDF>
      <cc:Work
         rdf:about="">
        <dc:format>image/svg+xml</dc:format>
        <dc:type
           rdf:resource="http://purl.org/dc/dcmitype/StillImage" />
        <dc:title></dc:title>
      </cc:Work>
    </rdf:RDF>
  </metadata>
  <g
     id="g7419"
     transform="matrix(0.12731808,0,0,0.12731808,94.375892,17.61091)">
    <g
       transform="matrix(2.4811914,0,0,2.4811914,-62.661778,-100.79945)"
       style="font-style:normal;font-weight:normal;font-size:171.6072998px;line-height:125%;font-family:Sans;letter-spacing:0px;word-spacing:0px;fill:#000000;fill-opacity:1;stroke:none;stroke-width:1px;stroke-linecap:butt;stroke-linejoin:miter;stroke-opacity:1"
       id="flowRoot4136-4-1-8-0-6-0-7-8-1-5-4-0">
      <path
         d="m 356.28715,227.28983 -143.2535,0 0,-8.42667 q 7.76141,-0.22176 12.41826,-1.33053 4.8786,-1.10878 7.53966,-3.76983 2.66105,-2.66106 3.54807,-7.53966 0.88702,-4.8786 0.88702,-12.64001 l 0,-103.337673 q 0,-7.761413 -0.88702,-12.418261 -0.66526,-4.878602 -3.10456,-7.539658 -2.21755,-2.882811 -6.65264,-3.769829 -4.4351,-1.108773 -11.53125,-1.552283 l 0,-8.426677 67.41342,0 0,8.426677 q -7.09615,0.221755 -11.53124,1.330528 -4.21334,1.108773 -6.65264,3.991584 -2.21755,2.88281 -3.10457,7.983168 -0.66526,5.100357 -0.66526,13.527033 l 0,95.576261 q 0,9.31369 1.77403,15.30107 1.9958,5.76562 6.43089,9.09194 4.65685,3.10456 12.19651,4.43509 7.53965,1.10877 19.0709,1.10877 12.64001,0 21.28844,-1.33052 8.64843,-1.55229 14.41406,-5.10036 5.98737,-3.76983 9.31369,-10.20072 3.54808,-6.65264 5.98738,-17.0751 l 8.42667,0 -3.32632,43.68566 z"
         style="font-style:normal;font-variant:normal;font-weight:normal;font-stretch:normal;font-size:221.75465393px;font-family:'Libre Baskerville';-inkscape-font-specification:'Libre Baskerville';fill:#000000"
         id="path7437" />
    </g>
    <g
       transform="matrix(2.4811914,0,0,2.4811914,-62.661778,-100.79945)"
       style="font-style:normal;font-weight:normal;font-size:171.6072998px;line-height:125%;font-family:Sans;letter-spacing:0px;word-spacing:0px;fill:#000000;fill-opacity:1;stroke:none;stroke-width:1px;stroke-linecap:butt;stroke-linejoin:miter;stroke-opacity:1"
       id="flowRoot4136-4-1-8-0-6-0-7-8-1-5-4-0-1">
      <path
         d="m 279.45931,42.354826 -9.09194,0 q -0.66526,-9.53545 -3.10456,-15.966335 -2.4393,-6.430885 -7.09615,-9.97896 -4.43509,-3.769829 -11.30949,-5.322111 -6.87439,-1.5522829 -16.40984,-1.5522829 -8.20492,0 -13.30528,0.4435093 -4.8786,0.2217546 -7.53966,1.1087736 -2.66106,0.887018 -3.54807,2.217546 -0.66527,1.108773 -0.66527,3.104565 l 0,118.638739 q 0,7.09615 0.88702,12.19651 1.10877,5.10035 3.99158,8.42667 3.10457,3.10457 8.64844,4.87861 5.76562,1.55228 15.07931,1.77403 l 0,8.42668 -83.82326,0 0,-8.42668 q 9.3137,-0.22175 15.07932,-1.77403 5.76562,-1.77404 8.64843,-4.87861 3.10457,-3.32632 3.99158,-8.42667 1.10878,-5.10036 1.10878,-12.19651 l 0,-118.638739 q 0,-1.995792 -0.88702,-3.104565 -0.66526,-1.330528 -3.10457,-2.217546 -2.21754,-0.887019 -6.43088,-1.1087736 -4.21334,-0.4435093 -11.30949,-0.4435093 -8.64843,0 -16.18809,0.6652639 -7.3179,0.665264 -12.86177,3.991584 -5.32211,3.104565 -8.64843,9.757205 -3.32632,6.652639 -3.54807,18.405636 l -8.20493,0 0,-42.35513905005 167.42477,0 L 279.45931,42.354826 Z"
         style="font-style:normal;font-variant:normal;font-weight:normal;font-stretch:normal;font-size:221.75465393px;font-family:'Libre Baskerville';-inkscape-font-specification:'Libre Baskerville';fill:#000000"
         id="path7440" />
    </g>
    <g
       transform="matrix(2.4811914,0,0,2.4811914,-62.661778,-100.79945)"
       style="font-style:normal;font-weight:normal;font-size:171.6072998px;line-height:125%;font-family:Sans;letter-spacing:0px;word-spacing:0px;fill:#000000;fill-opacity:1;stroke:none;stroke-width:1px;stroke-linecap:butt;stroke-linejoin:miter;stroke-opacity:1"
       id="flowRoot4136-4-1-8-0-6-0-7-8-1-5-4-0-7">
      <path
         d="m -0.00105753,210.1414 0,-8.42668 q 8.64843153,-0.22176 13.74878853,-1.33053 5.322112,-1.10877 7.983168,-3.76983 2.88281,-2.66105 3.769829,-7.53966 1.108773,-4.8786 1.108773,-12.64001 l 0,-103.337671 q 0,-7.761413 -0.887019,-12.41826 Q 25.057218,55.800156 22.617917,53.1391 20.400371,50.25629 15.965278,49.369271 11.530184,48.260498 4.4340356,47.816989 l 0,-8.426677 66.3046414,0 q 29.936883,0 46.568473,10.644223 16.6316,10.644224 16.6316,29.936879 0,14.635807 -9.31369,23.949506 -9.09194,9.31369 -29.049862,15.30107 l 0,0.88702 q 6.874392,0.66526 11.974752,1.55228 5.10036,0.88702 9.09194,2.21755 3.99158,1.10877 7.3179,2.88281 3.54808,1.77403 6.8744,3.99158 19.73616,13.97054 19.73616,35.03723 0,11.753 -6.65264,21.95372 -6.43088,9.97895 -18.18388,15.74458 -3.76983,1.99579 -7.76141,3.32632 -3.99159,1.10877 -9.3137,1.99579 -5.32211,0.66526 -12.418258,1.10877 -6.874394,0.22176 -16.409844,0.22176 l -79.83167553,0 z M 80.495882,200.60595 q 40.137588,0 40.137588,-34.37198 0,-25.05827 -20.62318,-35.03723 -3.548073,-1.55228 -6.874393,-2.66106 -3.32632,-1.10877 -7.761413,-1.55228 -4.435093,-0.66526 -10.644223,-0.88702 -5.987376,-0.22175 -14.857562,-0.22175 l -9.978959,0 0,49.45128 q 0,13.52704 7.096149,19.51441 7.096148,5.76563 23.505993,5.76563 z M 62.312,114.78689 q 6.874395,0 11.531242,-0.22175 4.656848,-0.22176 7.983168,-0.66526 3.32632,-0.66527 5.765621,-1.55229 2.661056,-1.10877 5.322111,-2.88281 7.096148,-4.43509 9.978958,-10.644221 3.10457,-6.20913 3.10457,-16.18809 0,-17.518617 -8.648434,-25.058275 -8.426677,-7.761413 -26.610559,-7.761413 l -17.075108,0 q -3.769829,0 -3.769829,3.769829 l 0,61.20428 12.41826,0 z"
         style="font-style:normal;font-variant:normal;font-weight:normal;font-stretch:normal;font-size:221.75465393px;font-family:'Libre Baskerville';-inkscape-font-specification:'Libre Baskerville';fill:#000000"
         id="path7443" />
    </g>
  </g>
  <path
     style="fill:#ff5555"
     d="m 38.77351,80.08283 c -1.574355,-0.56206 -2.723688,-1.6472 -3.275796,-3.09288 l -0.248077,-0.64961 -4.853075,-1.0739 -4.853066,-1.07386 -0.719785,0.74059 c -1.518803,1.56276 -3.623823,2.01248 -5.44763,1.16393 -1.643893,-0.76484 -2.858177,-2.4159 -3.063006,-4.1647 -0.08143,-0.69521 0.120876,-1.56779 0.635635,-2.74155 0.08156,-0.18603 -0.675015,-1.17025 -2.808382,-3.65331 -1.606041,-1.86927 -2.955791,-3.39865 -2.999474,-3.39865 -0.04364,0 -0.519076,0.14867 -1.056473,0.33038 C 7.836377,63.22938 5.2821089,62.00806 4.1840669,59.64805 3.3364977,57.82636 3.7852812,55.71918 5.3434126,54.20487 L 6.0794257,53.48952 5.0268362,49.27405 3.9742339,45.05857 3.1213301,44.70507 C 1.2995993,43.94999 0,42.04953 0,40.14059 0,38.23163 1.2995993,36.33117 3.1213301,35.5761 L 3.9742339,35.22259 5.0268362,31.0071 6.0794257,26.79162 5.3434126,26.07631 C 3.7852812,24.56199 3.3364977,22.4548 4.1840669,20.63312 5.2821089,18.27311 7.836377,17.0518 10.084381,17.8119 c 0.537397,0.18171 1.012829,0.33039 1.056473,0.33039 0.04368,0 1.393433,-1.52941 2.999474,-3.39869 2.133367,-2.48305 2.889942,-3.46724 2.808382,-3.65328 C 16.433951,9.91658 16.231642,9.04396 16.313075,8.34876 16.517904,6.59995 17.732188,4.94891 19.376081,4.18405 21.199888,3.33549 23.304908,3.78524 24.823711,5.348 L 25.543496,6.08859 30.3893,5.01632 35.235101,3.94403 35.582344,3.10623 C 36.331191,1.29951 38.23815,0 40.140579,0 c 1.90243,0 3.809383,1.29951 4.558235,3.10623 l 0.347245,0.8378 4.845801,1.07229 4.845807,1.07227 0.719782,-0.74059 c 1.518811,-1.56276 3.623845,-2.01251 5.447645,-1.16395 1.643886,0.76486 2.858176,2.4159 3.062996,4.16471 0.08143,0.6952 -0.120881,1.56782 -0.635625,2.74156 -0.08158,0.18604 0.675001,1.17023 2.808381,3.65328 1.606033,1.86928 2.955787,3.39869 2.999452,3.39869 0.04365,0 0.519082,-0.14868 1.0565,-0.33039 2.247991,-0.7601 4.802259,0.46121 5.900305,2.82122 0.847578,1.82168 0.398782,3.92887 -1.15934,5.44319 l -0.736032,0.71531 1.052603,4.21548 1.052601,4.21549 0.852891,0.35351 c 1.821741,0.75507 3.121338,2.65553 3.121338,4.56449 0,1.90894 -1.299597,3.8094 -3.121338,4.56448 l -0.852891,0.3535 -1.052601,4.21548 -1.052603,4.21547 0.736032,0.71535 c 1.558122,1.51431 2.006918,3.62149 1.15934,5.44318 -1.098046,2.36001 -3.652314,3.58133 -5.900305,2.82122 -0.537418,-0.18171 -1.012847,-0.33038 -1.0565,-0.33038 -0.04367,0 -1.393419,1.52938 -2.999452,3.39865 -2.13338,2.48306 -2.889964,3.46728 -2.808381,3.65331 0.514744,1.17376 0.717052,2.04634 0.635625,2.74155 -0.20482,1.7488 -1.41911,3.39986 -3.062996,4.1647 -1.8238,0.84855 -3.928834,0.39883 -5.447645,-1.16393 l -0.719782,-0.74059 -4.845807,1.07226 -4.845801,1.07229 -0.347245,0.83778 c -0.957349,2.30979 -3.754951,3.68273 -5.925304,2.90792 z m 2.901199,-2.64506 c 0.700269,-0.51338 1.005668,-1.26087 0.939124,-2.29843 -0.06703,-1.04517 -0.417151,-1.62722 -1.227381,-2.04034 -0.735544,-0.37508 -1.973999,-0.35702 -2.622196,0.0382 -0.85022,0.5184 -1.163695,1.17882 -1.09968,2.31683 0.06317,1.12291 0.390093,1.68941 1.23013,2.13157 0.713373,0.3755 2.172002,0.29795 2.780003,-0.14782 z M 22.819033,73.66663 c 0.70025,-0.51338 1.005661,-1.26086 0.939121,-2.29843 -0.06705,-1.04518 -0.417172,-1.62721 -1.227382,-2.04033 -0.735545,-0.37508 -1.97402,-0.35705 -2.622209,0.0382 -0.850205,0.51839 -1.163687,1.17881 -1.099659,2.31682 0.06316,1.12293 0.390077,1.68943 1.230122,2.1316 0.713363,0.37548 2.171992,0.29792 2.780007,-0.14784 z m 37.711367,0 c 0.700269,-0.51338 1.005668,-1.26086 0.939123,-2.29843 -0.06703,-1.04518 -0.41715,-1.62721 -1.227379,-2.04033 -0.735545,-0.37508 -1.974001,-0.35705 -2.622196,0.0382 -0.85022,0.51839 -1.163696,1.17881 -1.099682,2.31682 0.06318,1.12293 0.390094,1.68943 1.23013,2.1316 0.713375,0.37548 2.172003,0.29792 2.780004,-0.14784 z M 35.749982,73.12025 c 0.448357,-0.87884 1.563659,-1.92973 2.423101,-2.28318 l 0.709272,-0.2917 0,-4.00683 0,-4.00684 -0.709272,-0.29169 c -1.259372,-0.51792 -2.366414,-1.85559 -2.944586,-3.55801 -0.07963,-0.23449 -7.779885,-4.71391 -8.103357,-4.71391 -0.09327,0 -0.430579,0.17711 -0.749557,0.39357 -0.635467,0.43126 -1.925226,0.86348 -2.5766,0.86348 -0.682141,0 -1.945617,-0.43797 -2.673196,-0.92661 l -0.682768,-0.45855 -3.350185,1.67295 -3.350197,1.67294 -0.0052,0.55166 c -0.0043,0.47463 -0.297186,1.48791 -0.68697,2.37757 -0.08147,0.18598 0.675715,1.17095 2.808497,3.65331 1.606028,1.86927 2.955778,3.39865 2.999448,3.39865 0.04366,0 0.519076,-0.14868 1.056511,-0.33039 1.173975,-0.39695 2.100811,-0.33299 3.330144,0.22982 1.562855,0.71549 2.777213,2.35401 3.006434,4.05651 l 0.09893,0.73477 1.199056,0.26496 c 0.659486,0.14574 2.542527,0.56942 4.184533,0.94153 1.642021,0.3721 3.143149,0.68236 3.335838,0.68943 0.258168,0.009 0.437129,-0.1572 0.680079,-0.63344 z m -9.436901,-11.60989 0,-1.25704 1.257041,0 1.257041,0 0,1.25704 0,1.25705 -1.257041,0 -1.257041,0 0,-1.25705 z m 23.255341,11.31341 c 2.33273,-0.51852 4.267843,-0.94279 4.300242,-0.94279 0.03242,0 0.104147,-0.33586 0.159396,-0.74637 0.230746,-1.71411 1.440768,-3.35063 3.00799,-4.06812 1.229342,-0.56281 2.156162,-0.62677 3.330165,-0.22982 0.537402,0.18171 1.012834,0.33039 1.056499,0.33039 0.04365,0 1.393404,-1.52938 2.999436,-3.39865 2.132767,-2.48236 2.889979,-3.46733 2.808493,-3.65331 -0.389779,-0.88966 -0.682561,-1.90294 -0.68696,-2.37757 l -0.0052,-0.55166 -3.350199,-1.67294 -3.350199,-1.67295 -0.682781,0.45855 c -0.727577,0.48864 -1.991051,0.92661 -2.673187,0.92661 -0.651368,0 -1.941136,-0.43222 -2.576605,-0.86348 -0.31899,-0.21646 -0.656286,-0.39357 -0.74956,-0.39357 -0.32347,0 -8.023737,4.47942 -8.103372,4.71391 -0.578161,1.70242 -1.685194,3.04009 -2.944565,3.55801 l -0.709274,0.29169 0,4.00684 0,4.00683 0.709274,0.2917 c 0.859442,0.35345 1.974739,1.40434 2.42308,2.28318 0.181345,0.35547 0.434624,0.64629 0.562827,0.64629 0.128203,0 2.141706,-0.42423 4.474439,-0.94277 z m 1.885568,-11.31341 0,-1.25704 1.257045,0 1.257046,0 0,1.25704 0,1.25705 -1.257046,0 -1.257045,0 0,-1.25705 z M 10.248571,59.83913 c 0.700249,-0.5134 1.00566,-1.26086 0.939123,-2.29842 -0.10137,-1.58033 -1.039908,-2.37942 -2.6717695,-2.27474 -1.5803229,0.10135 -2.3793967,1.03991 -2.2747412,2.67178 0.066855,1.04207 0.41344,1.62077 1.2273845,2.04921 0.7133632,0.3755 2.1720083,0.29794 2.7800032,-0.14783 z m 31.426138,0 c 0.700269,-0.5134 1.005668,-1.26086 0.939124,-2.29842 -0.101366,-1.58033 -1.039907,-2.37942 -2.671774,-2.27474 -1.580325,0.10135 -2.379398,1.03991 -2.274733,2.67178 0.06684,1.04207 0.413444,1.62077 1.22738,2.04921 0.713373,0.3755 2.172002,0.29794 2.780003,-0.14783 z m 31.426163,0 c 0.700255,-0.5134 1.005654,-1.26086 0.939107,-2.29842 -0.101365,-1.58033 -1.039905,-2.37942 -2.671771,-2.27474 -1.580327,0.10135 -2.379399,1.03991 -2.274734,2.67178 0.06684,1.04207 0.413458,1.62077 1.227379,2.04921 0.713388,0.3755 2.172003,0.29794 2.780019,-0.14783 z M 36.25073,54.77457 c 0.866545,-1.24301 2.921075,-2.19596 4.32078,-2.0041 1.483141,0.20327 2.882783,1.08312 3.67986,2.31322 l 0.493406,0.76145 0.890099,-0.50644 c 0.48954,-0.27852 2.070824,-1.17813 3.513928,-1.99913 l 2.623849,-1.49276 -0.120049,-0.47139 c -0.549816,-2.15897 0.79604,-4.82961 2.862074,-5.67928 l 0.709277,-0.29168 0,-5.28614 0,-5.28613 -0.365029,-0.0916 c -0.200773,-0.0504 -0.636904,-0.27611 -0.969205,-0.50162 -0.479232,-0.3252 -0.671812,-0.37735 -0.931297,-0.25211 -0.179915,0.0868 -1.988788,1.35117 -4.019703,2.80961 l -3.692572,2.65168 -0.114391,0.9138 c -0.239781,1.91532 -1.38828,3.52026 -3.083533,4.30901 -2.982765,1.3878 -6.459764,-0.78321 -6.901178,-4.30901 L 35.032577,39.44815 31.34,36.79647 c -2.030912,-1.45844 -3.839785,-2.72276 -4.019707,-2.80961 -0.259481,-0.12524 -0.45205,-0.0731 -0.931286,0.25211 -0.33231,0.22551 -0.768433,0.45124 -0.969208,0.50162 l -0.365029,0.0916 0,5.28613 0,5.28614 0.709274,0.29168 c 2.06571,0.84954 3.40968,3.51548 2.863029,5.67928 l -0.119088,0.47139 3.4974,1.99698 c 2.849582,1.62704 3.526505,1.95549 3.654531,1.77317 0.08643,-0.12308 0.35119,-0.50216 0.588378,-0.84239 z m -20.226909,-1.39574 3.068913,-1.53202 -0.121678,-0.47139 c -0.555208,-2.15085 0.793854,-4.82938 2.860447,-5.67928 l 0.709259,-0.29168 0,-5.26387 0,-5.26389 -0.709259,-0.2917 c -1.520857,-0.62543 -2.829814,-2.46628 -3.012515,-4.23656 l -0.08636,-0.83666 -3.3311,-1.66338 -3.331125,-1.66342 -0.682781,0.45854 c -0.703496,0.4725 -1.9860983,0.92661 -2.6170868,0.92661 -0.4084364,0 -0.2791194,-0.38788 -1.4897743,4.46882 -0.7737756,3.10411 -0.8041155,3.29979 -0.5357418,3.45687 1.0689372,0.62575 1.7852669,1.22907 2.2362658,1.88351 0.680235,0.9871 1.0555561,2.28169 0.9290909,3.20449 -0.2180449,1.5908 -1.3735838,3.24542 -2.7607143,3.9531 -0.3492845,0.17818 -0.6350372,0.39581 -0.6350372,0.48366 0,0.13451 1.2540831,5.24703 1.7369752,7.08106 0.1397698,0.53084 0.1999276,0.57582 0.8955808,0.66948 1.0514687,0.14151 2.2655237,0.74814 2.9713877,1.48465 0.331485,0.34591 0.655281,0.6348 0.719525,0.64202 0.06423,0.007 1.497808,-0.67634 3.185728,-1.51896 z m -1.024159,-13.23824 0,-1.25706 1.257049,0 1.25705,0 0,1.25706 0,1.25704 -1.25705,0 -1.257049,0 0,-1.25704 z m 53.123656,14.1283 c 0.754793,-0.75479 1.965438,-1.35709 3.010671,-1.49777 0.695648,-0.0937 0.755813,-0.13864 0.895582,-0.66948 0.482878,-1.83403 1.736986,-6.94655 1.736986,-7.08106 0,-0.0879 -0.285774,-0.30548 -0.635044,-0.48366 -1.387135,-0.70768 -2.542674,-2.3623 -2.760722,-3.9531 -0.126476,-0.9228 0.248877,-2.21739 0.929097,-3.20449 0.450996,-0.65444 1.167322,-1.25776 2.236253,-1.88351 0.268379,-0.15708 0.238053,-0.35276 -0.535723,-3.45687 -0.451121,-1.80969 -0.887818,-3.54644 -0.970439,-3.85942 -0.140128,-0.53078 -0.200435,-0.57584 -0.89599,-0.66948 -2.310403,-0.31099 -4.26907,-2.29701 -4.539084,-4.60243 -0.08142,-0.69522 0.120884,-1.56781 0.635627,-2.74158 0.08158,-0.18601 -0.675002,-1.17022 -2.808382,-3.65328 -1.606032,-1.86926 -2.955785,-3.39865 -2.999436,-3.39865 -0.04366,0 -0.519097,0.14865 -1.056499,0.33036 -1.174003,0.39695 -2.100823,0.333 -3.330165,-0.22981 -1.567222,-0.7175 -2.777244,-2.35399 -3.00799,-4.0681 -0.05525,-0.41051 -0.126979,-0.74638 -0.159396,-0.74638 -0.0324,0 -1.967512,-0.42426 -4.300242,-0.94278 -2.33273,-0.51853 -4.34622,-0.94279 -4.474423,-0.94279 -0.128219,0 -0.381481,0.29082 -0.562826,0.64629 -0.448358,0.87883 -1.563654,1.92974 -2.423098,2.2832 l -0.709273,0.2917 0,4.00681 0,4.00684 0.709273,0.29169 c 1.493024,0.61402 2.753009,2.35275 3.018011,4.16475 l 0.121241,0.82903 3.950864,1.69546 3.950878,1.69546 0.675364,-0.45359 c 0.924374,-0.62081 2.214604,-0.9766 3.10098,-0.85512 3.339169,0.4577 5.43102,3.98715 4.081941,6.88729 -0.505096,1.08578 -1.593698,2.18414 -2.557679,2.58058 l -0.709271,0.2917 0,5.26389 0,5.26387 0.709271,0.29168 c 2.066584,0.8499 3.415677,3.52847 2.860424,5.67928 l -0.121682,0.47139 3.028599,1.52306 c 1.665743,0.8377 3.081649,1.5271 3.146464,1.53202 0.06482,0.005 0.40675,-0.27991 0.759838,-0.633 z m -5.35591,-14.1283 0,-1.25706 1.257045,0 1.257046,0 0,1.25706 0,1.25704 -1.257046,0 -1.257045,0 0,-1.25704 z M 51.45399,18.7708 l 0,-1.25704 1.257045,0 1.257046,0 0,1.25704 0,1.25705 -1.257046,0 -1.257045,0 0,-1.25705 z M 25.333114,52.29687 c 0.70025,-0.51341 1.005664,-1.26088 0.939124,-2.29843 -0.06703,-1.0452 -0.417169,-1.62722 -1.227387,-2.04037 -0.73554,-0.37505 -1.973992,-0.35701 -2.622195,0.0382 -0.850205,0.5184 -1.163682,1.17883 -1.099667,2.31684 0.06316,1.12291 0.390086,1.68942 1.230127,2.1316 0.713367,0.37549 2.171987,0.29792 2.779998,-0.14783 z m 32.683195,0 c 0.700269,-0.51341 1.005667,-1.26088 0.939123,-2.29843 -0.101365,-1.58034 -1.039907,-2.37941 -2.671771,-2.27476 -1.580328,0.10137 -2.379404,1.03992 -2.274741,2.67178 0.06684,1.0421 0.413458,1.62079 1.227384,2.04924 0.713375,0.37549 2.172003,0.29792 2.780005,-0.14783 z M 6.4774347,42.2405 C 7.1776842,41.7271 7.4830948,40.97962 7.4165584,39.94204 7.3495254,38.89687 6.9993879,38.31486 6.1891739,37.9017 5.4536318,37.52665 4.2151707,37.54469 3.5669688,37.9399 c -0.8502301,0.51836 -1.1636745,1.17881 -1.099659,2.31683 0.063162,1.12291 0.3900644,1.68943 1.2301219,2.13158 0.7133759,0.37549 2.1719955,0.29793 2.780003,-0.14782 z m 35.1972743,0 c 0.700269,-0.5134 1.005668,-1.26088 0.939124,-2.29846 -0.06703,-1.04517 -0.417151,-1.62718 -1.227381,-2.04034 -0.735544,-0.37505 -1.973999,-0.35701 -2.622196,0.0382 -0.85022,0.51836 -1.163695,1.17881 -1.09968,2.31683 0.06317,1.12291 0.390093,1.68943 1.23013,2.13158 0.713373,0.37549 2.172002,0.29793 2.780003,-0.14782 z m 35.197299,0 c 0.700254,-0.5134 1.005655,-1.26088 0.939109,-2.29846 -0.06703,-1.04517 -0.417152,-1.62718 -1.227378,-2.04034 -0.735546,-0.37505 -1.974004,-0.35701 -2.622199,0.0382 -0.850218,0.51836 -1.163694,1.17881 -1.099678,2.31683 0.06318,1.12291 0.390092,1.68943 1.230127,2.13158 0.713391,0.37549 2.172003,0.29793 2.780019,-0.14782 z M 36.779571,36.57854 c 1.950508,-1.83993 4.77341,-1.83812 6.726528,0.004 0.338662,0.31944 0.662667,0.56123 0.720004,0.53728 0.05735,-0.024 1.780385,-1.24174 3.828962,-2.70614 3.72142,-2.66022 3.724594,-2.66299 3.602238,-3.1426 -0.134677,-0.52787 -0.15388,-1.6424 -0.0404,-2.34475 0.07275,-0.45038 0.07151,-0.45107 -3.536761,-2.00343 -1.985251,-0.85408 -3.664586,-1.55286 -3.731853,-1.55286 -0.06727,0 -0.412358,0.29003 -0.766861,0.64453 -0.354519,0.35451 -1.04393,0.83039 -1.532027,1.05748 -3.907712,1.81816 -8.253606,-2.53894 -6.433996,-6.45057 0.505096,-1.08579 1.593697,-2.18418 2.557678,-2.58061 l 0.709272,-0.29167 0,-4.00684 0,-4.00684 -0.709272,-0.29169 C 37.313641,9.09037 36.198339,8.03948 35.749982,7.16065 35.568639,6.80518 35.315383,6.51436 35.187155,6.51436 c -0.128197,0 -2.141684,0.42424 -4.47442,0.94278 -2.332731,0.51852 -4.26784,0.94277 -4.300242,0.94277 -0.03242,0 -0.104139,0.33587 -0.159398,0.74638 -0.230746,1.71412 -1.44076,3.35062 -3.007982,4.06812 -1.229333,0.56278 -2.156159,0.62675 -3.330159,0.22981 -0.537397,-0.18174 -1.01284,-0.33038 -1.056498,-0.33038 -0.04365,0 -1.393407,1.52938 -2.999448,3.39866 -2.133368,2.48304 -2.889955,3.46726 -2.80837,3.65329 0.681738,1.55457 0.79817,2.50926 0.452565,3.7115 -0.0791,0.27518 0.298306,0.5077 3.035887,1.87041 l 3.126244,1.55615 0.668688,-0.66869 c 1.490589,-1.49058 3.587583,-1.91266 5.373783,-1.08159 1.858417,0.86467 3.056228,2.66866 3.008036,4.53038 -0.01446,0.56174 -0.04846,1.17833 -0.0754,1.37019 -0.04122,0.29366 0.535064,0.77007 3.643604,3.01206 2.030917,1.46477 3.735706,2.66895 3.788437,2.67592 0.05273,0.007 0.370925,-0.24674 0.707089,-0.56385 z m -10.46649,-17.80774 0,-1.25704 1.257041,0 1.257041,0 0,1.25704 0,1.25705 -1.257041,0 -1.257041,0 0,-1.25705 z m -0.979967,13.41333 c 0.70025,-0.5134 1.005664,-1.26086 0.939124,-2.29846 -0.101367,-1.58031 -1.039908,-2.37937 -2.671764,-2.27472 -1.580325,0.10136 -2.379392,1.0399 -2.274733,2.6718 0.06685,1.04207 0.413445,1.62078 1.227375,2.04918 0.713367,0.37553 2.171987,0.29796 2.779998,-0.1478 z m 32.683195,0 c 0.700269,-0.5134 1.005667,-1.26086 0.939123,-2.29846 -0.06703,-1.04517 -0.417151,-1.62719 -1.227379,-2.04033 -0.735545,-0.37505 -1.974002,-0.35702 -2.622198,0.0382 -0.850225,0.51837 -1.1637,1.1788 -1.099685,2.31682 0.06318,1.12292 0.390093,1.68942 1.230134,2.13157 0.713375,0.37553 2.172003,0.29796 2.780005,-0.1478 z M 10.248571,24.64186 c 0.700249,-0.5134 1.00566,-1.26086 0.939123,-2.29845 -0.10137,-1.58033 -1.039908,-2.37939 -2.6717695,-2.27472 -1.5803229,0.10135 -2.3793967,1.0399 -2.2747412,2.67177 0.066855,1.04209 0.41344,1.62079 1.2273845,2.0492 0.7133632,0.37552 2.1720083,0.29796 2.7800032,-0.1478 z m 31.426138,0 c 0.700269,-0.5134 1.005668,-1.26086 0.939124,-2.29845 -0.101366,-1.58033 -1.039907,-2.37939 -2.671774,-2.27472 -1.580325,0.10135 -2.379398,1.0399 -2.274733,2.67177 0.06684,1.04209 0.413444,1.62079 1.22738,2.0492 0.713373,0.37552 2.172002,0.29796 2.780003,-0.1478 z m 31.426163,0 c 0.700255,-0.5134 1.005654,-1.26086 0.939107,-2.29845 -0.101365,-1.58033 -1.039905,-2.37939 -2.671771,-2.27472 -1.580327,0.10135 -2.379399,1.0399 -2.274734,2.67177 0.06684,1.04209 0.413458,1.62079 1.227379,2.0492 0.713388,0.37552 2.172003,0.29796 2.780019,-0.1478 z M 22.819033,10.81435 c 0.70025,-0.51339 1.005661,-1.26086 0.939121,-2.29844 -0.101385,-1.58032 -1.039905,-2.37939 -2.671771,-2.27471 -1.580336,0.10134 -2.37941,1.03989 -2.274754,2.67175 0.06685,1.0421 0.413465,1.6208 1.227397,2.0492 0.713363,0.37554 2.171992,0.29796 2.780007,-0.1478 z m 37.711367,0 c 0.700269,-0.51339 1.005668,-1.26086 0.939123,-2.29844 -0.06703,-1.04516 -0.41715,-1.6272 -1.227379,-2.04036 -0.735545,-0.37504 -1.974001,-0.35701 -2.622196,0.0382 -0.85022,0.51837 -1.163696,1.17881 -1.099682,2.31683 0.06318,1.12292 0.390094,1.6894 1.23013,2.13156 0.713375,0.37554 2.172003,0.29796 2.780004,-0.1478 z M 41.674709,7.04322 C 42.374978,6.52981 42.680377,5.78234 42.613833,4.74478 42.546803,3.6996 42.196682,3.11758 41.386452,2.70443 40.650908,2.32936 39.412453,2.34742 38.764256,2.74263 c -0.85022,0.51838 -1.163695,1.17882 -1.09968,2.31685 0.06317,1.12289 0.390093,1.68938 1.23013,2.13156 0.713373,0.3755 2.172002,0.29795 2.780003,-0.14781 z"
     id="path9553-4" />
</svg>
